<?xml version="1.0" encoding="utf-8"?>
<!-- Generator: Adobe Illustrator 24.3.0, SVG Export Plug-In . SVG Version: 6.00 Build 0)  -->
<svg version="1.1" id="Laag_1" xmlns="http://www.w3.org/2000/svg" xmlns:xlink="http://www.w3.org/1999/xlink" x="0px" y="0px"
	 viewBox="0 0 30.07 30.08" style="enable-background:new 0 0 30.07 30.08;" xml:space="preserve">
<style type="text/css">
	.st0{fill:#FFFFFF;}
	.st1{fill:#020203;}
</style>
<g>
	<g>
		<path class="st0" d="M15.03,28.04c-7.17,0-13-5.83-13-13c0-7.17,5.83-13,13-13s13,5.83,13,13C28.03,22.21,22.2,28.04,15.03,28.04z
			"/>
		<path class="st1" d="M15.03,3.54c6.34,0,11.5,5.16,11.5,11.5s-5.16,11.5-11.5,11.5s-11.5-5.16-11.5-11.5S8.69,3.54,15.03,3.54
			 M15.03,0.54c-8.01,0-14.5,6.49-14.5,14.5s6.49,14.5,14.5,14.5s14.5-6.49,14.5-14.5S23.04,0.54,15.03,0.54L15.03,0.54z"/>
	</g>
</g>
</svg>
