<?xml version="1.0" encoding="utf-8"?>
<!-- Generator: Adobe Illustrator 24.3.0, SVG Export Plug-In . SVG Version: 6.00 Build 0)  -->
<svg version="1.1" id="Laag_1" xmlns="http://www.w3.org/2000/svg" xmlns:xlink="http://www.w3.org/1999/xlink" x="0px" y="0px"
	 viewBox="0 0 30.07 30.08" style="enable-background:new 0 0 30.07 30.08;" xml:space="preserve">
<style type="text/css">
	.st0{fill:#FFFFFF;}
	.st1{fill:#020203;}
</style>
<g>
	<g>
		<path class="st0" d="M15.03,29.04c-7.72,0-14-6.28-14-14s6.28-14,14-14c7.72,0,14,6.28,14,14S22.75,29.04,15.03,29.04z"/>
		<path class="st1" d="M15.03,1.54c7.44,0,13.5,6.06,13.5,13.5s-6.06,13.5-13.5,13.5s-13.5-6.06-13.5-13.5S7.59,1.54,15.03,1.54
			 M15.03,0.54c-8.01,0-14.5,6.49-14.5,14.5s6.49,14.5,14.5,14.5s14.5-6.49,14.5-14.5S23.04,0.54,15.03,0.54L15.03,0.54z"/>
	</g>
</g>
<g>
	<g>
		<path class="st0" d="M15.04,26.28c-6.2,0-11.24-5.04-11.24-11.24C3.8,8.84,8.84,3.8,15.04,3.8c6.2,0,11.24,5.04,11.24,11.24
			C26.27,21.24,21.23,26.28,15.04,26.28z"/>
		<path class="st1" d="M15.03,4.3c5.92,0,10.74,4.82,10.74,10.74s-4.82,10.74-10.74,10.74S4.3,20.96,4.3,15.04S9.11,4.3,15.03,4.3
			 M15.03,3.3C8.55,3.3,3.3,8.56,3.3,15.04s5.26,11.74,11.74,11.74s11.74-5.26,11.74-11.74S21.52,3.3,15.03,3.3L15.03,3.3z"/>
	</g>
</g>
</svg>
