<?xml version="1.0" encoding="utf-8"?>
<!-- Generator: Adobe Illustrator 24.3.0, SVG Export Plug-In . SVG Version: 6.00 Build 0)  -->
<svg version="1.1" id="Laag_1" xmlns="http://www.w3.org/2000/svg" xmlns:xlink="http://www.w3.org/1999/xlink" x="0px" y="0px"
	 viewBox="0 0 30.07 30.08" style="enable-background:new 0 0 30.07 30.08;" xml:space="preserve">
<style type="text/css">
	.st0{fill:#FFFFFF;}
	.st1{fill:#020203;}
</style>
<g>
	<g>
		<path class="st0" d="M15.03,29.04c-7.72,0-14-6.28-14-14c0-7.72,6.28-14,14-14c7.72,0,14,6.28,14,14
			C29.04,22.76,22.75,29.04,15.03,29.04z"/>
		<path class="st1" d="M15.03,1.54c7.44,0,13.5,6.06,13.5,13.5s-6.06,13.5-13.5,13.5s-13.5-6.06-13.5-13.5S7.59,1.54,15.03,1.54
			 M15.03,0.54c-8.01,0-14.5,6.49-14.5,14.5c0,8.01,6.49,14.5,14.5,14.5c8.01,0,14.5-6.49,14.5-14.5
			C29.53,7.03,23.04,0.54,15.03,0.54L15.03,0.54z"/>
	</g>
</g>
</svg>
